# xmcd CD database file
#
# Track frame offsets:
#	150
#	11321
#	30728
#	49411
#	61338
#	90523
#	103820
#	135143
#	149581
#	162157
#	181123
#	192224
#	210125
#	222571
#
# Disc length: 3304 seconds
#
# Revision: 0
# Processed by: cddbd v1.5.1PL0 Copyright (c) Steve Scherf et al.
# Submitted via: CDex 1.51
#
DISCID=ba0ce60e
DTITLE=The Rum 'n' Boogie Band  - On The Air
DYEAR=2005
DGENRE=Country
TTITLE0=The Rum 'n' Boogie Band - Wait On Time
TTITLE1=The Rum 'n' Boogie Band - Today I Started Lovin' You Again
TTITLE2=The Rum 'n' Boogie Band - Flaming Sword (Instr.)
TTITLE3=The Rum 'n' Boogie Band - Drinking Wine Spo-Dee-O-Dee
TTITLE4=The Rum 'n' Boogie Band - St Louis  Blues
TTITLE5=The Rum 'n' Boogie Band - When That Evening Sun Goes Down
TTITLE6=The Rum 'n' Boogie Band - The Outskirts Of Town
TTITLE7=The Rum 'n' Boogie Band - This Ones For Terry (Instr).
TTITLE8=The Rum 'n' Boogie Band - It Don't Hurt Anymoe
TTITLE9=The Rum 'n' Boogie Band - Kansas City
TTITLE10=The Rum 'n' Boogie Band - I Hear You Kockin'
TTITLE11=The Rum 'n' Boogie Band - Into The Mystic
TTITLE12=The Rum 'n' Boogie Band - On Bourbon Street (Instr.)
TTITLE13=The Rum 'n' Boogie Band - Donna
EXTD=YEAR: 2005
EXTT0=
EXTT1=
EXTT2=
EXTT3=
EXTT4=
EXTT5=
EXTT6=
EXTT7=
EXTT8=
EXTT9=
EXTT10=
EXTT11=
EXTT12=
EXTT13=
PLAYORDER=
